<svg width="37" height="38" viewBox="0 0 37 38" fill="none" xmlns="http://www.w3.org/2000/svg">
<path d="M20.5481 6.37891H16.4167C14.1087 6.37891 12.1766 8.20227 12.1766 10.5103V12.5216C12.1766 13.122 12.6634 13.6087 13.2638 13.6087C13.8642 13.6087 14.3509 13.1219 14.3509 12.5216V10.5103C14.3509 9.40127 15.3075 8.5533 16.4166 8.5533H20.548C21.657 8.5533 22.505 9.40118 22.505 10.5103V13.8805C22.505 14.9896 21.6027 15.8918 20.4937 15.8918C18.1857 15.8918 16.308 17.7695 16.308 20.0775V23.176C16.308 23.7765 16.7948 24.2632 17.3952 24.2632C17.9955 24.2632 18.4823 23.7764 18.4823 23.176V20.0775C18.4823 18.9685 19.3846 18.0662 20.4936 18.0662C22.8016 18.0662 24.6793 16.1885 24.6793 13.8805V10.5103C24.6794 8.20227 22.8561 6.37891 20.5481 6.37891Z" fill="black"/>
<path d="M17.5039 26.4375C15.7055 26.4375 14.2423 27.9007 14.2423 29.6991C14.2423 31.4975 15.7055 32.9606 17.5039 32.9606C19.3023 32.9606 20.7654 31.4975 20.7654 29.6991C20.7654 27.9007 19.3023 26.4375 17.5039 26.4375ZM17.5039 30.7863C16.9044 30.7863 16.4167 30.2985 16.4167 29.6991C16.4167 29.0996 16.9045 28.612 17.5039 28.612C18.1034 28.612 18.591 29.0997 18.591 29.6991C18.591 30.2985 18.1033 30.7863 17.5039 30.7863Z" fill="black"/>
<circle cx="18.4823" cy="19.2077" r="17.9823" stroke="black"/>
</svg>
