<svg width="346" height="60" viewBox="0 0 346 60" fill="none" xmlns="http://www.w3.org/2000/svg">
<path d="M-1.31134e-06 30C-2.03558e-06 46.5685 13.4315 60 30 60C46.5685 60 60 46.5685 60 30C60 13.4315 46.5685 -5.87108e-07 30 -1.31134e-06C13.4315 -2.03558e-06 -5.87108e-07 13.4315 -1.31134e-06 30Z" fill="#41AC4B"/>
<path d="M12.4972 22.3052L0.331718 34.4706C1.84742 44.6139 8.44086 53.0965 17.4426 57.2513L32.041 42.6529L12.4972 22.3052Z" fill="#13871F"/>
<path d="M28.8927 33.6907L17.4997 22.2977C16.1189 20.9169 13.8805 20.9171 12.4997 22.2977C11.1191 23.6786 11.1191 25.917 12.4997 27.2978L27.4997 42.2978C28.8803 43.6786 31.1189 43.6784 32.4997 42.2978L47.4997 27.2978C48.8803 25.917 48.8803 23.6786 47.4997 22.2977C46.1191 20.9169 43.8805 20.9171 42.4997 22.2977L31.1067 33.6907C30.4953 34.3022 29.5041 34.3022 28.8927 33.6907Z" fill="white"/>
<path d="M30 34.1493C29.5995 34.1493 29.1986 33.9964 28.8929 33.6908L17.5 22.2978C16.1194 20.917 13.8807 20.917 12.4999 22.2978C11.1193 23.6786 11.1193 25.917 12.4999 27.2979L27.4999 42.2979C28.1903 42.9882 29.0951 43.3334 29.9999 43.3334L29.9999 34.1493L30 34.1493Z" fill="#B9B9C6"/>
<path d="M73.144 20.976C73.912 20.528 74.904 20.1333 76.12 19.792C77.3573 19.4507 78.84 19.28 80.568 19.28C81.9973 19.28 83.2667 19.3973 84.376 19.632C85.5067 19.8453 86.456 20.1867 87.224 20.656C87.992 21.104 88.5787 21.6907 88.984 22.416C89.3893 23.1413 89.592 24.016 89.592 25.04C89.592 26.4053 89.24 27.4933 88.536 28.304C87.832 29.0933 86.8293 29.7227 85.528 30.192C87.3413 30.4267 88.664 30.9707 89.496 31.824C90.328 32.656 90.744 33.808 90.744 35.28C90.744 36.2827 90.5413 37.2107 90.136 38.064C89.752 38.9173 89.1547 39.664 88.344 40.304C87.5547 40.9227 86.5413 41.4133 85.304 41.776C84.088 42.1173 82.6373 42.2987 80.952 42.32C79.9493 42.32 79.0107 42.2453 78.136 42.096C77.2827 41.968 76.504 41.7867 75.8 41.552C75.096 41.296 74.4773 41.008 73.944 40.688C73.432 40.368 73.0267 40.0373 72.728 39.696V34C73.4533 35.088 74.5093 35.9627 75.896 36.624C77.2827 37.264 78.9573 37.5627 80.92 37.52C81.5173 37.52 82.0933 37.4773 82.648 37.392C83.2027 37.2853 83.6827 37.1253 84.088 36.912C84.5147 36.6987 84.8453 36.432 85.08 36.112C85.336 35.7707 85.464 35.376 85.464 34.928C85.464 34.1387 85.1227 33.5733 84.44 33.232C83.7573 32.8907 82.6373 32.72 81.08 32.72H77.816V28.496H81.048C82.2427 28.496 83.0853 28.2933 83.576 27.888C84.088 27.4613 84.344 26.9387 84.344 26.32C84.344 25.5093 84.024 24.944 83.384 24.624C82.744 24.2827 81.8053 24.1013 80.568 24.08C79.7147 24.08 78.9147 24.176 78.168 24.368C77.4213 24.56 76.728 24.816 76.088 25.136C75.4693 25.456 74.904 25.8293 74.392 26.256C73.9013 26.6827 73.4853 27.1307 73.144 27.6V20.976ZM94.656 42V19.6H104.768C107.541 19.6 109.557 20.1013 110.816 21.104C112.096 22.1067 112.736 23.5147 112.736 25.328C112.736 26.5227 112.491 27.5253 112 28.336C111.531 29.1467 110.752 29.808 109.664 30.32C112.16 30.896 113.408 32.6133 113.408 35.472C113.408 36.624 113.205 37.616 112.8 38.448C112.395 39.28 111.808 39.9627 111.04 40.496C110.293 41.008 109.376 41.392 108.288 41.648C107.221 41.8827 106.016 42 104.672 42H94.656ZM104.8 37.2C106.08 37.2 106.976 37.008 107.488 36.624C108 36.2187 108.256 35.632 108.256 34.864C108.256 34.16 108 33.616 107.488 33.232C106.976 32.8267 106.08 32.624 104.8 32.624H99.776V37.2H104.8ZM104.352 28.656C105.504 28.656 106.336 28.4533 106.848 28.048C107.36 27.6427 107.616 27.1093 107.616 26.448C107.616 25.808 107.371 25.3067 106.88 24.944C106.411 24.5813 105.611 24.4 104.48 24.4H99.776V28.656H104.352ZM131.872 32.88H122.432V37.2H133.408V42H117.312V19.6H133.056V24.4H122.432V28.08H131.872V32.88ZM142.964 35.728V42H137.844V19.6H145.46C147.422 19.6 149.076 19.7707 150.42 20.112C151.785 20.4533 152.884 20.9653 153.716 21.648C154.569 22.3093 155.177 23.1307 155.54 24.112C155.924 25.0933 156.116 26.2133 156.116 27.472C156.116 30.2667 155.22 32.3467 153.428 33.712C151.636 35.056 148.98 35.728 145.46 35.728H142.964ZM142.964 24.4V30.928H146.1C147.721 30.928 148.916 30.6507 149.684 30.096C150.452 29.5413 150.836 28.6773 150.836 27.504C150.836 26.4373 150.484 25.6587 149.78 25.168C149.097 24.656 147.956 24.4 146.356 24.4H142.964ZM187.347 39.696C187.07 40.0373 186.686 40.368 186.195 40.688C185.704 41.008 185.118 41.296 184.435 41.552C183.774 41.808 183.027 42.0107 182.195 42.16C181.384 42.3093 180.499 42.384 179.539 42.384C177.683 42.384 175.976 42.128 174.419 41.616C172.883 41.0827 171.56 40.3253 170.451 39.344C169.342 38.3413 168.478 37.1253 167.859 35.696C167.24 34.2667 166.931 32.624 166.931 30.768C166.931 29.04 167.23 27.472 167.827 26.064C168.446 24.6347 169.31 23.4187 170.419 22.416C171.55 21.392 172.883 20.6027 174.419 20.048C175.976 19.4933 177.704 19.216 179.603 19.216C181.31 19.216 182.782 19.3973 184.019 19.76C185.256 20.1227 186.259 20.528 187.027 20.976V27.6C186.664 27.1307 186.238 26.6827 185.747 26.256C185.256 25.8293 184.691 25.456 184.051 25.136C183.432 24.7947 182.75 24.528 182.003 24.336C181.256 24.1227 180.456 24.016 179.603 24.016C178.515 24.016 177.534 24.1867 176.659 24.528C175.784 24.848 175.038 25.3067 174.419 25.904C173.822 26.48 173.352 27.184 173.011 28.016C172.691 28.848 172.531 29.776 172.531 30.8C172.531 31.7387 172.68 32.624 172.979 33.456C173.278 34.2667 173.715 34.9813 174.291 35.6C174.888 36.1973 175.624 36.6773 176.499 37.04C177.395 37.4027 178.43 37.584 179.603 37.584C181.48 37.584 183.07 37.264 184.371 36.624C185.672 35.9627 186.664 35.088 187.347 34V39.696ZM190.516 26H195.316V31.824H197.588L201.524 26H206.804L201.524 33.552L207.604 42H201.844L197.556 35.824H195.316V42H190.516V26ZM209.797 26H214.629V35.632L220.965 26H225.765V42H220.933V32.272L214.597 42H209.797V26ZM240.006 30.224H235.878L235.718 33.04C235.611 35.0453 235.387 36.656 235.046 37.872C234.705 39.0667 234.278 39.984 233.766 40.624C233.275 41.264 232.721 41.6907 232.102 41.904C231.483 42.096 230.843 42.192 230.182 42.192C229.819 42.192 229.467 42.1707 229.126 42.128C228.785 42.0853 228.529 42.0427 228.358 42V37.168C228.507 37.232 228.646 37.2747 228.774 37.296C228.923 37.3173 229.062 37.328 229.19 37.328C229.467 37.328 229.734 37.2747 229.99 37.168C230.246 37.04 230.47 36.7627 230.662 36.336C230.875 35.888 231.046 35.2267 231.174 34.352C231.323 33.4773 231.419 32.2827 231.462 30.768L231.59 26H244.838V42H240.006V30.224ZM248.829 26H253.629V30.32H255.869C256.957 30.32 257.917 30.4267 258.749 30.64C259.602 30.832 260.327 31.152 260.925 31.6C261.522 32.048 261.981 32.6347 262.301 33.36C262.621 34.064 262.781 34.9387 262.781 35.984C262.781 37.968 262.183 39.472 260.989 40.496C259.794 41.4987 257.949 42 255.453 42H248.829V26ZM264.221 26H269.053V42H264.221V26ZM255.293 37.776C256.295 37.776 256.989 37.6267 257.373 37.328C257.778 37.0293 257.981 36.592 257.981 36.016C257.981 35.504 257.789 35.1307 257.405 34.896C257.042 34.64 256.434 34.512 255.581 34.512H253.629V37.776H255.293Z" fill="#209F38"/>
</svg>
