<svg width="36" height="36" viewBox="0 0 36 36" fill="none" xmlns="http://www.w3.org/2000/svg">
<path d="M35.3834 17.2398C35.2199 17.2398 35.0632 17.3048 34.9476 17.4204C34.832 17.536 34.767 17.6927 34.767 17.8562C34.782 21.9368 33.2995 25.8812 30.6004 28.9417C27.9012 32.0021 24.1731 33.9661 20.1226 34.4612C16.0721 34.9564 11.9807 33.9483 8.62384 31.6282C5.26697 29.308 2.87792 25.8369 1.9095 21.8729C0.941074 17.9088 1.46057 13.7272 3.36954 10.1206C5.2785 6.51395 8.44426 3.73299 12.2668 2.30475C16.0894 0.876518 20.3031 0.900264 24.1093 2.37149C27.9155 3.84271 31.0497 6.65918 32.9179 10.2871L31.1427 9.81862C30.986 9.78028 30.8205 9.80369 30.6805 9.88401C30.5405 9.96433 30.4368 10.0954 30.3907 10.2501C30.3492 10.407 30.3711 10.574 30.4519 10.7148C30.5327 10.8555 30.6658 10.9588 30.8222 11.0021L33.9781 11.8403H34.1383C34.2733 11.8396 34.4043 11.7946 34.5112 11.7122C34.6181 11.6298 34.695 11.5146 34.7301 11.3842L35.556 8.31466C35.5976 8.15775 35.5756 7.99078 35.4948 7.84999C35.414 7.7092 35.281 7.60595 35.1245 7.56267C34.9678 7.52433 34.8023 7.54774 34.6623 7.62806C34.5223 7.70838 34.4186 7.83945 34.3726 7.99414L33.9657 9.5844C31.9424 5.71556 28.5721 2.72173 24.4917 1.16854C20.4113 -0.384656 15.9034 -0.389656 11.8196 1.15448C7.73574 2.69862 4.35885 5.68497 2.3269 9.54931C0.294941 13.4136 -0.25137 17.8884 0.791179 22.1281C1.83373 26.3678 4.39294 30.0788 7.9853 32.5602C11.5777 35.0415 15.9544 36.1212 20.2886 35.5953C24.6228 35.0694 28.6144 32.9744 31.5091 29.706C34.4039 26.4376 36.0014 22.2222 35.9998 17.8562C35.9998 17.6927 35.9349 17.536 35.8193 17.4204C35.7037 17.3048 35.5469 17.2398 35.3834 17.2398Z" fill="black"/>
<path d="M4.15879 19.0026C4.79878 19.0026 5.31759 18.4894 5.31759 17.8562C5.31759 17.223 4.79878 16.7097 4.15879 16.7097C3.51881 16.7097 3 17.223 3 17.8562C3 18.4894 3.51881 19.0026 4.15879 19.0026Z" fill="black"/>
<path d="M18.1246 4.29611C18.7646 4.29611 19.2834 3.78282 19.2834 3.14964C19.2834 2.51646 18.7646 2.00317 18.1246 2.00317C17.4846 2.00317 16.9658 2.51646 16.9658 3.14964C16.9658 3.78282 17.4846 4.29611 18.1246 4.29611Z" fill="black"/>
<path d="M32.8441 19.0026C33.4841 19.0026 34.0029 18.4894 34.0029 17.8562C34.0029 17.223 33.4841 16.7097 32.8441 16.7097C32.2041 16.7097 31.6853 17.223 31.6853 17.8562C31.6853 18.4894 32.2041 19.0026 32.8441 19.0026Z" fill="black"/>
<path d="M18.1246 33.7097C18.7646 33.7097 19.2834 33.1964 19.2834 32.5632C19.2834 31.93 18.7646 31.4167 18.1246 31.4167C17.4846 31.4167 16.9658 31.93 16.9658 32.5632C16.9658 33.1964 17.4846 33.7097 18.1246 33.7097Z" fill="black"/>
<path d="M11.5171 24.3527C11.5744 24.4104 11.6425 24.4563 11.7177 24.4876C11.7928 24.5189 11.8733 24.535 11.9547 24.535C12.0361 24.535 12.1166 24.5189 12.1917 24.4876C12.2669 24.4563 12.335 24.4104 12.3923 24.3527L18.5561 18.2875C18.6723 18.1737 18.7387 18.0186 18.741 17.856V7.18034C18.741 7.01687 18.6761 6.86009 18.5605 6.7445C18.4449 6.6289 18.2881 6.56396 18.1247 6.56396C17.9612 6.56396 17.8044 6.6289 17.6888 6.7445C17.5732 6.86009 17.5083 7.01687 17.5083 7.18034V17.5972L11.5294 23.4774C11.4708 23.5339 11.424 23.6014 11.3916 23.6761C11.3593 23.7508 11.342 23.8311 11.3409 23.9125C11.3397 23.9939 11.3547 24.0746 11.385 24.1502C11.4152 24.2257 11.4601 24.2946 11.5171 24.3527Z" fill="black"/>
</svg>
