<svg width="160" height="60" viewBox="0 0 160 60" fill="none" xmlns="http://www.w3.org/2000/svg">
<path d="M75.144 17.976C75.912 17.528 76.904 17.1333 78.12 16.792C79.3573 16.4507 80.84 16.28 82.568 16.28C83.9973 16.28 85.2667 16.3973 86.376 16.632C87.5067 16.8453 88.456 17.1867 89.224 17.656C89.992 18.104 90.5787 18.6907 90.984 19.416C91.3893 20.1413 91.592 21.016 91.592 22.04C91.592 23.4053 91.24 24.4933 90.536 25.304C89.832 26.0933 88.8293 26.7227 87.528 27.192C89.3413 27.4267 90.664 27.9707 91.496 28.824C92.328 29.656 92.744 30.808 92.744 32.28C92.744 33.2827 92.5413 34.2107 92.136 35.064C91.752 35.9173 91.1547 36.664 90.344 37.304C89.5547 37.9227 88.5413 38.4133 87.304 38.776C86.088 39.1173 84.6373 39.2987 82.952 39.32C81.9493 39.32 81.0107 39.2453 80.136 39.096C79.2827 38.968 78.504 38.7867 77.8 38.552C77.096 38.296 76.4773 38.008 75.944 37.688C75.432 37.368 75.0267 37.0373 74.728 36.696V31C75.4533 32.088 76.5093 32.9627 77.896 33.624C79.2827 34.264 80.9573 34.5627 82.92 34.52C83.5173 34.52 84.0933 34.4773 84.648 34.392C85.2027 34.2853 85.6827 34.1253 86.088 33.912C86.5147 33.6987 86.8453 33.432 87.08 33.112C87.336 32.7707 87.464 32.376 87.464 31.928C87.464 31.1387 87.1227 30.5733 86.44 30.232C85.7573 29.8907 84.6373 29.72 83.08 29.72H79.816V25.496H83.048C84.2427 25.496 85.0853 25.2933 85.576 24.888C86.088 24.4613 86.344 23.9387 86.344 23.32C86.344 22.5093 86.024 21.944 85.384 21.624C84.744 21.2827 83.8053 21.1013 82.568 21.08C81.7147 21.08 80.9147 21.176 80.168 21.368C79.4213 21.56 78.728 21.816 78.088 22.136C77.4693 22.456 76.904 22.8293 76.392 23.256C75.9013 23.6827 75.4853 24.1307 75.144 24.6V17.976ZM96.656 39V16.6H106.768C109.541 16.6 111.557 17.1013 112.816 18.104C114.096 19.1067 114.736 20.5147 114.736 22.328C114.736 23.5227 114.491 24.5253 114 25.336C113.531 26.1467 112.752 26.808 111.664 27.32C114.16 27.896 115.408 29.6133 115.408 32.472C115.408 33.624 115.205 34.616 114.8 35.448C114.395 36.28 113.808 36.9627 113.04 37.496C112.293 38.008 111.376 38.392 110.288 38.648C109.221 38.8827 108.016 39 106.672 39H96.656ZM106.8 34.2C108.08 34.2 108.976 34.008 109.488 33.624C110 33.2187 110.256 32.632 110.256 31.864C110.256 31.16 110 30.616 109.488 30.232C108.976 29.8267 108.08 29.624 106.8 29.624H101.776V34.2H106.8ZM106.352 25.656C107.504 25.656 108.336 25.4533 108.848 25.048C109.36 24.6427 109.616 24.1093 109.616 23.448C109.616 22.808 109.371 22.3067 108.88 21.944C108.411 21.5813 107.611 21.4 106.48 21.4H101.776V25.656H106.352ZM133.872 29.88H124.432V34.2H135.408V39H119.312V16.6H135.056V21.4H124.432V25.08H133.872V29.88ZM144.964 32.728V39H139.844V16.6H147.46C149.422 16.6 151.076 16.7707 152.42 17.112C153.785 17.4533 154.884 17.9653 155.716 18.648C156.569 19.3093 157.177 20.1307 157.54 21.112C157.924 22.0933 158.116 23.2133 158.116 24.472C158.116 27.2667 157.22 29.3467 155.428 30.712C153.636 32.056 150.98 32.728 147.46 32.728H144.964ZM144.964 21.4V27.928H148.1C149.721 27.928 150.916 27.6507 151.684 27.096C152.452 26.5413 152.836 25.6773 152.836 24.504C152.836 23.4373 152.484 22.6587 151.78 22.168C151.097 21.656 149.956 21.4 148.356 21.4H144.964Z" fill="#209F38"/>
<path d="M-1.31134e-06 30C-2.03558e-06 46.5685 13.4315 60 30 60C46.5685 60 60 46.5685 60 30C60 13.4315 46.5685 -5.87108e-07 30 -1.31134e-06C13.4315 -2.03558e-06 -5.87108e-07 13.4315 -1.31134e-06 30Z" fill="#41AC4B"/>
<path d="M12.4974 22.3052L0.331962 34.4706C1.84766 44.6139 8.4411 53.0965 17.4429 57.2513L32.0413 42.6529L12.4974 22.3052Z" fill="#13871F"/>
<path d="M28.8929 33.6907L17.5 22.2977C16.1191 20.9169 13.8807 20.9171 12.4999 22.2977C11.1193 23.6786 11.1193 25.917 12.4999 27.2978L27.4999 42.2978C28.8805 43.6786 31.1191 43.6784 32.5 42.2978L47.5 27.2978C48.8805 25.917 48.8805 23.6786 47.5 22.2977C46.1194 20.9169 43.8807 20.9171 42.4999 22.2977L31.107 33.6907C30.4956 34.3022 29.5043 34.3022 28.8929 33.6907Z" fill="white"/>
<path d="M30 34.1493C29.5995 34.1493 29.1986 33.9964 28.8929 33.6908L17.5 22.2978C16.1194 20.917 13.8807 20.917 12.4999 22.2978C11.1193 23.6786 11.1193 25.917 12.4999 27.2979L27.4999 42.2979C28.1903 42.9882 29.0951 43.3334 29.9999 43.3334L29.9999 34.1493L30 34.1493Z" fill="#B9B9C6"/>
</svg>
